<svg xmlns="http://www.w3.org/2000/svg" xmlns:xlink="http://www.w3.org/1999/xlink" width="500" zoomAndPan="magnify" viewBox="0 0 375 374.999991" height="500" preserveAspectRatio="xMidYMid meet" version="1.0"><defs><g/></defs><g fill="#ffffff" fill-opacity="1"><g transform="translate(159.116063, 285.067955)"><g/></g></g><g fill="#ffffff" fill-opacity="1"><g transform="translate(0.0000045, 263.54206)"><g><path d="M 97.152344 4.125 C 142.164062 4.125 167.296875 -22.507812 175.546875 -57.765625 L 164.292969 -57.765625 C 159.792969 -37.136719 141.789062 -5.625 97.152344 -5.625 C 51.015625 -5.625 21.003906 -39.761719 21.003906 -97.527344 L 178.171875 -97.527344 C 178.171875 -153.792969 152.667969 -195.425781 96.777344 -195.425781 C 45.011719 -195.425781 9.753906 -158.292969 9.753906 -95.652344 C 9.753906 -35.632812 43.511719 4.125 97.152344 4.125 Z M 21.003906 -107.277344 C 22.132812 -148.164062 49.136719 -185.675781 96.777344 -185.675781 C 145.164062 -185.675781 166.921875 -145.914062 166.921875 -107.277344 Z M 21.003906 -107.277344 "/></g></g></g><g fill="#ffffff" fill-opacity="1"><g transform="translate(187.17513, 263.54206)"><g><path d="M 2.625 0 L 16.878906 0 L 86.648438 -91.523438 L 87.398438 -91.523438 L 157.542969 0 L 171.796875 0 L 94.527344 -98.652344 L 165.417969 -192.800781 L 151.539062 -192.800781 L 87.398438 -106.527344 L 86.648438 -106.527344 L 22.507812 -192.800781 L 8.628906 -192.800781 L 79.519531 -98.652344 Z M 2.625 0 "/></g></g></g><g fill="#ffffff" fill-opacity="1"><g transform="translate(187.49765, 206.099972)"><g/></g></g></svg>